<svg xmlns="http://www.w3.org/2000/svg" version="1.1" width="600" height="480" viewBox="0.0 0.0 600.0 480.0" style="overflow: hidden"><defs><clipPath id="clipCircle_338ffd24"><circle cx="300.0" cy="240.0" r="240.0" /></clipPath></defs><g clip-path="url(#clipCircle_338ffd24)"><path d="M0 0 C198 0 396 0 600 0 C600 158.4 600 316.8 600 480 C402 480 204 480 0 480 C0 321.6 0 163.2 0 0 Z " fill="#000D37" transform="translate(0,0)" />
<path d="M0 0 C6.14045245 4.59983714 10.87094969 8.60174465 14.1796875 15.6328125 C14.1796875 16.2928125 14.1796875 16.9528125 14.1796875 17.6328125 C15.30503906 17.56320313 15.30503906 17.56320313 16.453125 17.4921875 C26.74927795 17.12909898 33.54344861 19.12407916 41.4921875 25.7578125 C47.07460302 31.15561271 50.81663819 36.26653941 51.47265625 44.15625 C51.4898892 47.33400606 51.40321439 50.46369789 51.1796875 53.6328125 C51.92992187 53.58640625 52.68015625 53.54 53.453125 53.4921875 C65.56691338 53.06500101 72.40724015 56.33474498 81.24609375 64.51171875 C83.1796875 66.6328125 83.1796875 66.6328125 84.1796875 69.6328125 C69.70969207 73.55371449 57.4258562 74.42582914 44.0546875 66.9453125 C35.23651501 61.30610501 29.30236756 54.29924794 25.1796875 44.6328125 C25.1796875 43.6428125 25.1796875 42.6528125 25.1796875 41.6328125 C25.8396875 41.6328125 26.4996875 41.6328125 27.1796875 41.6328125 C29.79863798 36.85707927 29.01088181 32.78846369 28.1796875 27.6328125 C24.04749199 25.62932377 20.75333344 25.06110676 16.1796875 25.6328125 C12.7873647 28.08683325 11.37369244 29.46878287 10.6796875 33.6328125 C11.25520553 37.08592065 11.97247411 38.91058265 14.1796875 41.6328125 C15.62021484 42.25929688 15.62021484 42.25929688 17.08984375 42.8984375 C20.88952907 45.03125707 21.68610685 46.77980433 23.4921875 50.6953125 C29.64183757 62.80580759 38.21819722 71.23216062 51.2421875 75.5078125 C56.12014309 76.68213514 60.87371899 76.90732285 65.8671875 76.9453125 C66.56787354 76.95095215 67.26855957 76.9565918 67.99047852 76.96240234 C72.99989291 76.89288442 77.35211202 75.96332697 82.1796875 74.6328125 C84.17570056 74.2763816 86.1745325 73.93358575 88.1796875 73.6328125 C90.22771729 78.73248826 90.51461719 83.16475817 90.4921875 88.5703125 C90.50830078 89.34310547 90.52441406 90.11589844 90.54101562 90.91210938 C90.54853665 99.80948587 86.72019925 106.7790869 81.1796875 113.6328125 C73.70370025 120.62897448 65.17256442 124.76679825 54.94238281 124.74633789 C53.68137756 124.74626236 52.42037231 124.74618683 51.12115479 124.74610901 C49.75004029 124.74100278 48.37892619 124.7357868 47.0078125 124.73046875 C45.60105439 124.72860278 44.19429562 124.72717972 42.78753662 124.72618103 C39.09188023 124.72236994 35.39626337 124.7125517 31.70062256 124.70147705 C27.92672256 124.69123264 24.15281615 124.68667692 20.37890625 124.68164062 C12.97914868 124.67092814 5.57942364 124.65386866 -1.8203125 124.6328125 C1.48555606 122.06825183 4.75453854 120.33994709 8.5546875 118.5703125 C18.33616565 113.83525538 27.12216125 107.69335198 34.9296875 100.1328125 C38.79237776 96.50882782 41.91420401 95.80202378 47.0703125 95.10546875 C49.43563861 94.78195822 49.43563861 94.78195822 51.3046875 92.3828125 C52.34418193 89.11583001 52.74681901 87.03560155 52.1796875 83.6328125 C50.18335361 80.76308254 48.70738867 78.98070485 45.20703125 78.18359375 C41.96593091 78.00790794 39.5467158 78.44012264 36.6796875 79.9453125 C34.90735305 83.12074505 35.22706208 84.27600118 35.5546875 87.8203125 C35.69310813 91.5329515 35.57911754 93.10163768 33.3203125 96.10546875 C30.7118412 98.46686435 28.02819744 100.56833227 25.1796875 102.6328125 C24.42300781 103.22578125 23.66632813 103.81875 22.88671875 104.4296875 C5.77841659 117.26827569 -15.80427049 126.92086906 -37.48046875 124.16796875 C-57.45950757 121.07969511 -82.41301967 110.41148284 -94.8203125 93.6328125 C-95.60984393 90.38156258 -95.53580883 88.17303566 -95.04296875 84.890625 C-94.53468988 82.37089222 -94.53468988 82.37089222 -96.8828125 79.9453125 C-100.58856672 78.28954998 -102.80191537 77.98699868 -106.8203125 78.6328125 C-110.0069628 80.4026948 -110.0069628 80.4026948 -111.8203125 83.6328125 C-112.23259562 87.76287679 -111.84487354 91.32137437 -109.2578125 94.6328125 C-106.70995069 95.85050628 -106.70995069 95.85050628 -103.2578125 95.6953125 C-97.69715313 96.20640252 -94.77318377 100.08995403 -90.92578125 103.8046875 C-81.43321873 112.72947631 -69.68472025 118.55047046 -57.8203125 123.6328125 C-57.8203125 123.9628125 -57.8203125 124.2928125 -57.8203125 124.6328125 C-65.84445495 124.72600038 -73.86836664 124.79682209 -81.89291859 124.84006119 C-85.62013342 124.86082681 -89.34697469 124.88893861 -93.07397461 124.93457031 C-96.67908522 124.9784272 -100.28383935 125.00203222 -103.8891964 125.01232147 C-105.2561675 125.01964222 -106.62312183 125.0339354 -107.98993874 125.05573273 C-120.16424113 125.24194231 -130.77587072 123.30040254 -139.8203125 114.6328125 C-147.01475424 106.31015148 -149.99995714 99.64530516 -150.0703125 88.7578125 C-150.0909375 87.96761719 -150.1115625 87.17742187 -150.1328125 86.36328125 C-150.16622315 81.34333154 -149.5079649 78.03207511 -146.8203125 73.6328125 C-145.98371094 73.849375 -145.14710938 74.0659375 -144.28515625 74.2890625 C-126.07012805 78.64614566 -111.8484351 77.03572752 -95.8203125 67.6328125 C-89.07600168 62.9205823 -85.91567972 56.53121197 -82.87158203 49.09204102 C-81.98606153 47.07737364 -81.176263 45.36860671 -79.8203125 43.6328125 C-76.1640625 42.296875 -76.1640625 42.296875 -72.8203125 41.6328125 C-70.5544174 38.08619408 -70.55076787 34.76583009 -70.8203125 30.6328125 C-71.48852938 27.50502145 -71.48852938 27.50502145 -73.9453125 26.4453125 C-77.46090655 25.45177505 -80.18254348 25.23596497 -83.8203125 25.6328125 C-87.11656871 27.80140211 -87.71943646 29.23651379 -88.6953125 33.0703125 C-88.8196222 36.61313882 -88.42396926 38.51983174 -86.8203125 41.6328125 C-86.1603125 41.6328125 -85.5003125 41.6328125 -84.8203125 41.6328125 C-87.08802295 51.53224081 -93.27741158 59.58191047 -101.41796875 65.53125 C-109.79170518 70.70957871 -116.57311958 71.95674822 -126.3203125 71.8828125 C-127.33996094 71.89054687 -128.35960937 71.89828125 -129.41015625 71.90625 C-134.6003927 71.89275134 -138.97183489 71.7249638 -143.8203125 69.6328125 C-140.75033742 62.09741913 -133.49731706 57.92022145 -126.49609375 54.49609375 C-123.21681737 53.43810823 -120.44626021 53.43834891 -117.0078125 53.5078125 C-115.26564453 53.53488281 -115.26564453 53.53488281 -113.48828125 53.5625 C-112.60785156 53.58570313 -111.72742188 53.60890625 -110.8203125 53.6328125 C-110.85511719 52.94316406 -110.88992187 52.25351563 -110.92578125 51.54296875 C-111.20447826 41.86820102 -109.94247211 35.72992054 -103.5078125 28.3203125 C-97.66873399 22.22612861 -92.1512506 17.93639667 -83.390625 17.4375 C-82.25367188 17.46070313 -81.11671875 17.48390625 -79.9453125 17.5078125 C-78.79289062 17.52585938 -77.64046875 17.54390625 -76.453125 17.5625 C-75.58429688 17.58570313 -74.71546875 17.60890625 -73.8203125 17.6328125 C-73.5625 16.735625 -73.3046875 15.8384375 -73.0390625 14.9140625 C-69.78260598 6.14667957 -61.99134146 0.56834481 -53.8203125 -3.3671875 C-36.29863573 -10.62716513 -16.28474837 -10.91132971 0 0 Z " fill="#3DA6DE" transform="translate(329.8203125,129.3671875)" />
<path d="M0 0 C4.76723037 3.663173 9.02996388 7.51461139 12.5 12.4375 C15.66948231 15.68621937 17.83877156 15.79181079 22.19921875 16.4765625 C33.15393451 18.52388734 41.98583278 24.49847171 49 33 C53.18853138 39.33465508 55.70758248 45.39714441 56 53 C56.94875 53.0825 57.8975 53.165 58.875 53.25 C68.06703697 54.62139261 75.11325061 58.96124587 82 65 C82.6290625 65.52335937 83.258125 66.04671875 83.90625 66.5859375 C91.71057325 73.60298253 96.4703198 84.37555801 97.30078125 94.76171875 C97.34879599 110.84665541 94.00679391 122.56759274 82.9375 134.75 C73.53722299 143.71567516 60.90723548 148.33069787 48.02619934 148.26069641 C47.26491201 148.26452196 46.50362467 148.26834751 45.71926802 148.27228898 C43.19013337 148.28253689 40.66122925 148.27864253 38.13208008 148.2746582 C36.30964957 148.27900934 34.4872209 148.28419383 32.66479492 148.29014587 C27.72858209 148.30350685 22.79244596 148.30411755 17.85621858 148.30158257 C13.72642076 148.30051045 9.5966383 148.30540263 5.46684378 148.310188 C-4.28359051 148.32127411 -14.03398628 148.32172625 -23.78442383 148.31567383 C-33.81933262 148.30964019 -43.85410098 148.32193163 -53.88898581 148.3432439 C-62.5236828 148.36090334 -71.15833527 148.36685424 -79.79304963 148.36360615 C-84.94153653 148.36179937 -90.08992335 148.36436844 -95.23839378 148.37832069 C-100.0852951 148.39096448 -104.93197899 148.38889339 -109.77887726 148.37590981 C-111.54884988 148.37355831 -113.31883811 148.37622695 -115.0887928 148.38453293 C-132.25355137 148.45921738 -146.08252707 146.51947065 -159.1875 134.5 C-169.85202646 123.36522671 -173.56562879 109.90095826 -173.30859375 94.78125 C-172.1747744 80.88837498 -164.32931996 69.91625307 -154 61 C-147.57223912 56.0136158 -140.18102588 53 -132 53 C-131.9071875 51.329375 -131.9071875 51.329375 -131.8125 49.625 C-130.4871362 39.58757812 -124.26590231 31.69404889 -117 25 C-110.24140325 19.86460556 -103.81498965 16 -95.125 16 C-88.95933214 15.3679296 -85.696465 9.43171078 -82 5 C-60.83728862 -17.18201629 -24.29160477 -15.12664033 0 0 Z M-78 19 C-81.0071758 23.11780166 -81.0071758 23.11780166 -82 28 C-83.25103516 27.93039063 -83.25103516 27.93039063 -84.52734375 27.859375 C-95.47321935 27.50830453 -102.19618286 29.65664296 -110.2109375 37.14453125 C-116.5307296 43.69890079 -119.0895114 49.69863336 -119.125 58.9375 C-119.09319918 60.62521475 -119.05491533 62.31287918 -119 64 C-119.79921875 63.93039063 -120.5984375 63.86078125 -121.421875 63.7890625 C-132.64122224 63.23599609 -140.51048422 66.7817198 -149 74 C-151.42113318 76.65147083 -151.42113318 76.65147083 -152 80 C-141.99701363 84.22159933 -126.34283362 83.89316875 -116.25 80.125 C-107.21289959 75.4679249 -99.58071378 68.08210784 -95 59 C-94.63003906 58.32710937 -94.26007813 57.65421875 -93.87890625 56.9609375 C-92.79549815 54.9018829 -92.79549815 54.9018829 -93 52 C-93.66 52 -94.32 52 -95 52 C-97.2283499 47.67437961 -97.1951994 44.69542622 -96 40 C-94.375 37.5625 -94.375 37.5625 -92 36 C-87.43577549 35.5020846 -84.12241328 36.00125417 -80 38 C-79.34141435 42.08501098 -78.80153758 45.83403329 -79.5 49.9375 C-81 52 -81 52 -84.34765625 52.65234375 C-88.30326066 54.08425723 -88.30326066 54.08425723 -90.15234375 57.4140625 C-90.7655867 58.80985679 -91.3599016 60.21408232 -91.9375 61.625 C-97.92829175 74.63193055 -106.73680253 80.92763742 -120 86 C-130.05989911 88.35334401 -141.06470746 87.59263824 -151 85 C-151.74894531 84.81308594 -152.49789062 84.62617188 -153.26953125 84.43359375 C-153.84058594 84.29050781 -154.41164062 84.14742188 -155 84 C-158.10531214 89.13444467 -158.46189984 93.12003831 -158.375 98.9375 C-158.38660156 99.71029297 -158.39820313 100.48308594 -158.41015625 101.27929688 C-158.36151286 110.87015224 -153.75693593 118.73006117 -147.40625 125.765625 C-140.82398535 131.9132118 -131.77824139 135.13129389 -122.8762207 135.11352539 C-121.61513992 135.11344986 -120.35405914 135.11337433 -119.05476379 135.11329651 C-117.67843588 135.10818989 -116.30210837 135.10297389 -114.92578125 135.09765625 C-113.51759389 135.09579086 -112.10940589 135.09436753 -110.70121765 135.09336853 C-106.9973267 135.08955288 -103.29347505 135.07973072 -99.58959961 135.06866455 C-95.80908744 135.05842997 -92.02856891 135.05386652 -88.24804688 135.04882812 C-80.83201335 135.0381076 -73.41601218 135.0210426 -66 135 C-68.69200413 132.30799587 -71.91599387 131.04920785 -75.3125 129.4375 C-85.29796227 124.55709128 -94.167737 118.84528711 -102.1875 111.0625 C-106.32709153 107.14612174 -109.35779113 106.13677662 -114.92578125 105.4375 C-117 105 -117 105 -119.125 102.75 C-120.16449443 99.48301751 -120.56713151 97.40278905 -120 94 C-117.9375 91.125 -117.9375 91.125 -115 89 C-110.98160287 88.35418618 -108.76825422 88.65673748 -105.0625 90.3125 C-102.56856644 93.562171 -102.95995852 94.21254231 -103.375 98.125 C-103.53096386 101.9134124 -103.3687401 103.49799859 -101.09765625 106.58984375 C-98.20568668 109.27797405 -95.19139584 111.68573964 -92 114 C-91.42733398 114.42700195 -90.85466797 114.85400391 -90.26464844 115.29394531 C-76.02147243 125.80172089 -59.80435077 133.351449 -42 135 C-40.96939453 135.09667969 -40.96939453 135.09667969 -39.91796875 135.1953125 C-19.49651088 136.21130543 2.68636104 124.77142783 17.80078125 111.85546875 C20 110 20 110 22.16796875 108.55078125 C24.19975162 107.13542751 25.61444309 106.05789273 27 104 C27.30814628 101.10849037 27.18924794 98.40354961 27.01171875 95.50390625 C27 93 27 93 28.5 90.3125 C32.03552857 88.4563475 35.15682562 88.1493369 39 89 C42.0625 90.9375 42.0625 90.9375 44 94 C44.40533715 98.13299135 44.02690727 101.68555869 41.4375 105 C39 106 39 106 35.375 106.125 C30.04445701 106.59882604 27.26384393 110.02942522 23.5546875 113.59765625 C14.16880691 122.42382837 1.84836497 129.12214708 -10 134 C-10 134.33 -10 134.66 -10 135 C-1.95858673 135.0931181 6.08259727 135.16397484 14.12441826 135.20724869 C17.8595079 135.22802924 21.5942258 135.25616923 25.32910156 135.30175781 C28.94069135 135.34556031 32.551926 135.36920859 36.16376114 135.37950897 C37.53434964 135.38683928 38.90492106 135.40115198 40.27535629 135.42292023 C52.60272369 135.61075275 62.42781728 133.01349396 72 125 C74.26435555 122.48350005 76.16918177 119.84336079 78 117 C78.598125 116.0925 79.19625 115.185 79.8125 114.25 C82.39253217 109.36151799 82.18313759 104.52566586 82.1875 99.125 C82.19974609 98.33480469 82.21199219 97.54460937 82.22460938 96.73046875 C82.2362095 92.08268452 81.77874711 88.37304627 80 84 C76.68379968 84.49743005 73.53136533 85.12839306 70.29296875 86.015625 C57.96038433 89.11789468 44.81049031 87.4329511 33.515625 81.75 C23.85714011 75.88829883 18.09499644 67.65862352 13.4765625 57.5703125 C11.28628059 53.75759955 8.92437554 52.81125025 5 51 C3.17366204 48.61782005 3.00682153 47.04580167 2.5625 44.0625 C3 41 3 41 5.0625 38.125 C8.73461749 35.46857458 10.55221047 35.44402631 15 36 C17.9375 37 17.9375 37 20 38 C21.51708428 47.41002278 21.51708428 47.41002278 19 52 C18.34 52 17.68 52 17 52 C17.98105257 60.66596434 23.78722127 67.50785302 29.98828125 73.40234375 C40.01083062 81.36199947 50.41453833 84.04249322 63 83 C67.38925187 82.18960451 71.6927444 81.16712732 76 80 C73.11607456 73.27084063 66.73549133 68.46193469 60.1875 65.5 C54.52558081 63.46705894 48.93970331 63.63259567 43 64 C43.05800781 63.17757812 43.11601562 62.35515625 43.17578125 61.5078125 C43.58161397 51.46635138 41.60613755 44.67338023 34.8125 37.1875 C28.42860913 31.25258607 20.46531642 27.84445896 11.8125 27.9375 C10.72582031 27.94652344 9.63914062 27.95554687 8.51953125 27.96484375 C7.68808594 27.97644531 6.85664063 27.98804688 6 28 C5.79375 27.154375 5.5875 26.30875 5.375 25.4375 C1.82644062 16.56610154 -6.24593925 10.60958811 -14.7734375 6.7421875 C-17.49295514 5.71379848 -20.21167501 4.82203951 -23 4 C-23.71542969 3.77441406 -24.43085938 3.54882812 -25.16796875 3.31640625 C-44.57694052 -1.96370802 -64.41550596 4.65477429 -78 19 Z " fill="#061441" transform="translate(338,119)" />
<path d="M0 0 C4.76723037 3.663173 9.02996388 7.51461139 12.5 12.4375 C15.66948231 15.68621937 17.83877156 15.79181079 22.19921875 16.4765625 C33.15393451 18.52388734 41.98583278 24.49847171 49 33 C53.18853138 39.33465508 55.70758248 45.39714441 56 53 C56.94875 53.0825 57.8975 53.165 58.875 53.25 C68.06703697 54.62139261 75.11325061 58.96124587 82 65 C82.6290625 65.52335937 83.258125 66.04671875 83.90625 66.5859375 C91.71057325 73.60298253 96.4703198 84.37555801 97.30078125 94.76171875 C97.34879599 110.84665541 94.00679391 122.56759274 82.9375 134.75 C73.53722299 143.71567516 60.90723548 148.33069787 48.02619934 148.26069641 C47.26491201 148.26452196 46.50362467 148.26834751 45.71926802 148.27228898 C43.19013337 148.28253689 40.66122925 148.27864253 38.13208008 148.2746582 C36.30964957 148.27900934 34.4872209 148.28419383 32.66479492 148.29014587 C27.72858209 148.30350685 22.79244596 148.30411755 17.85621858 148.30158257 C13.72642076 148.30051045 9.5966383 148.30540263 5.46684378 148.310188 C-4.28359051 148.32127411 -14.03398628 148.32172625 -23.78442383 148.31567383 C-33.81933262 148.30964019 -43.85410098 148.32193163 -53.88898581 148.3432439 C-62.5236828 148.36090334 -71.15833527 148.36685424 -79.79304963 148.36360615 C-84.94153653 148.36179937 -90.08992335 148.36436844 -95.23839378 148.37832069 C-100.0852951 148.39096448 -104.93197899 148.38889339 -109.77887726 148.37590981 C-111.54884988 148.37355831 -113.31883811 148.37622695 -115.0887928 148.38453293 C-132.25355137 148.45921738 -146.08252707 146.51947065 -159.1875 134.5 C-169.85202646 123.36522671 -173.56562879 109.90095826 -173.30859375 94.78125 C-172.1747744 80.88837498 -164.32931996 69.91625307 -154 61 C-147.57223912 56.0136158 -140.18102588 53 -132 53 C-131.9071875 51.329375 -131.9071875 51.329375 -131.8125 49.625 C-130.4871362 39.58757812 -124.26590231 31.69404889 -117 25 C-110.24140325 19.86460556 -103.81498965 16 -95.125 16 C-88.95933214 15.3679296 -85.696465 9.43171078 -82 5 C-60.83728862 -17.18201629 -24.29160477 -15.12664033 0 0 Z M-82.5390625 15.88671875 C-83.98731016 17.98164384 -84.58389603 19.50899919 -85 22 C-86.258125 21.9175 -87.51625 21.835 -88.8125 21.75 C-99.26557866 21.78287132 -107.5478822 26.81601914 -114.90625 33.8125 C-121.51494893 40.75723446 -124.29942417 48.5422263 -125 58 C-125.75023437 58.08636719 -126.50046875 58.17273438 -127.2734375 58.26171875 C-140.12338863 60.02575486 -148.80913963 64.77904687 -157 75 C-163.6769215 86.01082593 -165.85585316 96.55303664 -163.3515625 109.30078125 C-160.02004246 120.27771266 -153.55800197 129.55192999 -143.6171875 135.40234375 C-135.97523114 139.433651 -128.92578552 141.24522375 -120.28521729 141.26742554 C-119.55180925 141.27195665 -118.81840122 141.27648776 -118.0627687 141.28115618 C-115.62804306 141.29372223 -113.19354335 141.29218491 -110.75878906 141.29052734 C-109.00369991 141.29651751 -107.24861338 141.30332417 -105.49353027 141.31088257 C-100.74126954 141.32850089 -95.9890809 141.33323621 -91.23679066 141.33451414 C-88.26301391 141.33593875 -85.28925532 141.34021424 -82.31548309 141.34550858 C-71.92743269 141.36399562 -61.5394335 141.37218092 -51.15136719 141.37060547 C-41.4901684 141.36940469 -31.82919323 141.39049801 -22.168051 141.4220928 C-13.85523378 141.4483029 -5.54248938 141.45897077 2.77036881 141.45769465 C7.72715772 141.45718638 12.6837478 141.46279482 17.6404953 141.48405075 C22.30605277 141.50351288 26.97122338 141.50350342 31.63679504 141.48901749 C33.34107788 141.48693809 35.04538544 141.49157795 36.74962616 141.5037384 C51.30675242 141.60081372 64.80862352 139.32968494 76 129.1875 C85.11762925 119.44106873 88.5202272 107.94469699 88.3125 94.79296875 C87.29797771 82.47920451 80.6378175 73.6398299 71.48828125 65.828125 C64.54906372 60.72992437 57.53267145 58.41963958 49 58 C48.88785156 56.87464844 48.88785156 56.87464844 48.7734375 55.7265625 C47.35062775 44.65096503 43.15669376 36.95601734 34.57421875 29.7578125 C26.76005289 24.4218874 18.36566848 21.81989099 9 22 C8.79375 21.319375 8.5875 20.63875 8.375 19.9375 C4.49879354 11.65651348 -2.26897655 7.45253786 -10 3 C-10.69351563 2.58492187 -11.38703125 2.16984375 -12.1015625 1.7421875 C-34.71190322 -10.8191129 -66.27729607 -2.797719 -82.5390625 15.88671875 Z " fill="#566DD2" transform="translate(338,119)" />
<path d="M0 0 C0.66 0.33 1.32 0.66 2 1 C1.34 1.66 0.68 2.32 0 3 C2.475 3.495 2.475 3.495 5 4 C5 4.33 5 4.66 5 5 C4.38511719 5.09796875 3.77023438 5.1959375 3.13671875 5.296875 C-1.79655401 6.18823113 -1.79655401 6.18823113 -6.125 8.5625 C-7.527709 12.4700465 -7.08378444 16.03364998 -6 20 C-4.55851025 22.18547684 -4.55851025 22.18547684 -2 23 C-0.824375 23.020625 0.35125 23.04125 1.5625 23.0625 C7.12315937 23.57359002 10.04712873 27.45714153 13.89453125 31.171875 C23.38709377 40.09666381 35.13559225 45.91765796 47 51 C47 51.33 47 51.66 47 52 C38.97585755 52.09318788 30.95194586 52.16400959 22.92739391 52.20724869 C19.20017908 52.22801431 15.47333781 52.25612611 11.74633789 52.30175781 C8.14122728 52.3456147 4.53647315 52.36921972 0.9311161 52.37950897 C-0.435855 52.38682972 -1.80280933 52.4011229 -3.16962624 52.42292023 C-15.34392863 52.60912981 -25.95555822 50.66759004 -35 42 C-42.19444174 33.67733898 -45.17964464 27.01249266 -45.25 16.125 C-45.270625 15.33480469 -45.29125 14.54460937 -45.3125 13.73046875 C-45.34591065 8.71051904 -44.6876524 5.39926261 -42 1 C-41.16339844 1.2165625 -40.32679688 1.433125 -39.46484375 1.65625 C-26.87667501 4.66737342 -14.34042366 5.85800108 -2.125 0.8125 C-1.073125 0.4103125 -1.073125 0.4103125 0 0 Z " fill="#517CD7" transform="translate(225,202)" />
<path d="M0 0 C2.04802979 5.09967576 2.33492969 9.53194567 2.3125 14.9375 C2.32861328 15.71029297 2.34472656 16.48308594 2.36132812 17.27929688 C2.36884915 26.17667337 -1.45948825 33.1462744 -7 40 C-14.47598725 46.99616198 -23.00712308 51.13398575 -33.23730469 51.11352539 C-34.49830994 51.11344986 -35.75931519 51.11337433 -37.05853271 51.11329651 C-38.42964721 51.10819028 -39.80076131 51.1029743 -41.171875 51.09765625 C-42.57863311 51.09579028 -43.98539188 51.09436722 -45.39215088 51.09336853 C-49.08780727 51.08955744 -52.78342413 51.0797392 -56.47906494 51.06866455 C-60.25296494 51.05842014 -64.02687135 51.05386442 -67.80078125 51.04882812 C-75.20053882 51.03811564 -82.60026386 51.02105616 -90 51 C-86.69413144 48.43543933 -83.42514896 46.70713459 -79.625 44.9375 C-69.84352185 40.20244288 -61.05752625 34.06053948 -53.25 26.5 C-49.38730974 22.87601532 -46.26548349 22.16921128 -41.109375 21.47265625 C-38.74404889 21.14914572 -38.74404889 21.14914572 -36.875 18.75 C-35.83550557 15.48301751 -35.43286849 13.40278905 -36 10 C-38.72667613 6.28180527 -40.27267969 5.15500269 -44.8125 4.1875 C-45.864375 4.125625 -46.91625 4.06375 -48 4 C-48 3.67 -48 3.34 -48 3 C-46.6078125 2.7834375 -46.6078125 2.7834375 -45.1875 2.5625 C-41.99274889 2.07899889 -41.99274889 2.07899889 -39 1 C-37.06570084 1.48770791 -35.13218508 1.97931082 -33.20703125 2.50195312 C-29.63687087 3.30760879 -26.14490684 3.28983505 -22.5 3.25 C-21.79230469 3.25773438 -21.08460938 3.26546875 -20.35546875 3.2734375 C-13.27960037 3.24756595 -6.84740287 0 0 0 Z " fill="#527CD8" transform="translate(418,203)" />
<path d="M0 0 C4.07733699 3.00343453 7.21919777 6.52868707 8.82421875 11.34375 C9.4951488 18.76797595 9.43539252 25.22862417 4.82421875 31.34375 C0.20307112 36.29407527 -4.35921125 38.41365532 -11.05078125 38.65625 C-16.28034587 38.52415104 -20.67001141 37.66291995 -24.64453125 33.984375 C-29.40038422 28.62021526 -30.47981069 23.95362627 -30.55078125 16.90625 C-30.57914063 15.62878906 -30.6075 14.35132813 -30.63671875 13.03515625 C-29.96618006 7.6651642 -27.34298417 3.91710237 -23.17578125 0.53125 C-16.42302202 -4.39263694 -7.16428504 -4.06896513 0 0 Z " fill="#F5F5F7" transform="translate(224.17578125,296.65625)" />
<path d="M0 0 C22.88571429 0 22.88571429 0 30 5.1875 C32.18333745 8.25781828 32.61840865 10.24457631 32.35546875 14.00390625 C31.79532767 17.14931388 30.81193216 19.3758224 29 22 C26.38671875 23.1640625 26.38671875 23.1640625 24 24 C24.6496875 25.05960937 25.299375 26.11921875 25.96875 27.2109375 C26.81273123 28.59881775 27.65646864 29.98684629 28.5 31.375 C29.14388672 32.42300781 29.14388672 32.42300781 29.80078125 33.4921875 C33 38.7734375 33 38.7734375 33 41 C28.71 41 24.42 41 20 41 C19.51080078 39.60974609 19.51080078 39.60974609 19.01171875 38.19140625 C18.57472656 36.99386719 18.13773437 35.79632813 17.6875 34.5625 C17.25824219 33.36753906 16.82898438 32.17257812 16.38671875 30.94140625 C15.92910156 29.97074219 15.47148437 29.00007813 15 28 C14.01 27.67 13.02 27.34 12 27 C12 31.62 12 36.24 12 41 C8.04 41 4.08 41 0 41 C0 27.47 0 13.94 0 0 Z " fill="#EDEEF1" transform="translate(376,294)" />
<path d="M0 0 C11 0 11 0 14.375 2.703125 C15.28454109 3.85905475 16.15981504 5.04271884 17 6.25 C17.44988281 6.83652344 17.89976562 7.42304688 18.36328125 8.02734375 C19.60770127 9.66087445 20.8056441 11.32951573 22 13 C22.598125 13.75796875 23.19625 14.5159375 23.8125 15.296875 C25 17 25 17 25 19 C25.66 19 26.32 19 27 19 C27 13.06 27 7.12 27 1 C30.3 1 33.6 1 37 1 C37 13.87 37 26.74 37 40 C29 40 29 40 27.13037109 38.76538086 C26.72383301 38.19182861 26.31729492 37.61827637 25.8984375 37.02734375 C25.42245117 36.38780762 24.94646484 35.74827148 24.45605469 35.08935547 C23.97555664 34.39986816 23.49505859 33.71038086 23 33 C21.93211415 31.60360963 20.86175953 30.20910411 19.7890625 28.81640625 C18.7314282 27.4006341 17.67726278 25.98226904 16.625 24.5625 C13.840625 20.8190625 13.840625 20.8190625 11 17 C11 24.92 11 32.84 11 41 C7.37 41 3.74 41 0 41 C0 27.47 0 13.94 0 0 Z " fill="#F1F2F4" transform="translate(121,294)" />
<path d="M0 0 C3.63 0 7.26 0 11 0 C14.70832585 9.43425147 18.37563019 18.88437619 21.9375 28.375 C22.24373291 29.17655518 22.54996582 29.97811035 22.86547852 30.80395508 C23.14576904 31.55700928 23.42605957 32.31006348 23.71484375 33.0859375 C23.96355225 33.7464209 24.21226074 34.4069043 24.46850586 35.08740234 C25 37 25 37 25 41 C21.04 41 17.08 41 13 41 C12.34 38.03 11.68 35.06 11 32 C7.37 32 3.74 32 0 32 C-0.33 34.97 -0.66 37.94 -1 41 C-4.96 41 -8.92 41 -13 41 C-12.40834761 35.63221067 -11.11925761 30.94372784 -9.27734375 25.87890625 C-9.01240616 25.13414536 -8.74746857 24.38938446 -8.47450256 23.62205505 C-7.63500214 21.26661164 -6.78642081 18.91456247 -5.9375 16.5625 C-5.36332676 14.95659658 -4.78975301 13.35047869 -4.21679688 11.74414062 C-2.81811704 7.82691322 -1.41128906 3.91270133 0 0 Z " fill="#EEEFF2" transform="translate(346,294)" />
<path d="M0 0 C3.3 0 6.6 0 10 0 C10 5.28 10 10.56 10 16 C14.95 16 19.9 16 25 16 C25 10.72 25 5.44 25 0 C28.3 0 31.6 0 35 0 C35 12.87 35 25.74 35 39 C31.7 39 28.4 39 25 39 C25 34.05 25 29.1 25 24 C20.05 24 15.1 24 10 24 C10 28.95 10 33.9 10 39 C6.7 39 3.4 39 0 39 C0 26.13 0 13.26 0 0 Z " fill="#FAFAFB" transform="translate(292,295)" />
<path d="M0 0 C3.21715188 1.14611036 4.37090018 2.6597691 5.875 5.66796875 C5.79530952 10.21032633 5.13805809 13.40491066 1.875 16.66796875 C1.215 16.66796875 0.555 16.66796875 -0.125 16.66796875 C-0.11011774 25.18730291 -0.06849266 33.70591103 0.00709057 42.22490215 C0.04135267 46.18085468 0.06646922 50.13642138 0.07055664 54.0925293 C0.07484145 57.91192354 0.10331745 61.73044754 0.14843178 65.54957008 C0.16140126 67.00512431 0.16571634 68.46078271 0.16115379 69.91638756 C0.15624304 71.95912494 0.18235148 73.99932329 0.21557617 76.04174805 C0.22223801 77.2031279 0.22889984 78.36450775 0.23576355 79.56108093 C1.05766294 83.55576741 2.95114563 84.93179759 5.875 87.66796875 C5.94755031 91.73078625 5.20982843 94.06270198 3.25 97.60546875 C0.875 99.66796875 0.875 99.66796875 -2.5625 100.29296875 C-7.06894111 99.50236505 -8.45780086 98.35497932 -11.125 94.66796875 C-12.1875 91.16796875 -12.1875 91.16796875 -12.125 87.66796875 C-10.3125 84.73046875 -10.3125 84.73046875 -8.125 82.66796875 C-7.465 82.66796875 -6.805 82.66796875 -6.125 82.66796875 C-6.125 60.88796875 -6.125 39.10796875 -6.125 16.66796875 C-7.445 16.00796875 -8.765 15.34796875 -10.125 14.66796875 C-12.17450964 12.03288493 -12.1229723 10.55441755 -12.0625 7.16796875 C-11.125 3.66796875 -11.125 3.66796875 -9.0625 1.16796875 C-5.62656541 -0.58655104 -3.73020966 -0.71354389 0 0 Z " fill="#06224B" transform="translate(303.125,134.33203125)" />
<path d="M0 0 C3.63 0 7.26 0 11 0 C12.00508801 1.78881736 13.00392736 3.58114696 14 5.375 C14.556875 6.37273437 15.11375 7.37046875 15.6875 8.3984375 C17 11 17 11 17 13 C17.66 13 18.32 13 19 13 C19.0825 12.34 19.165 11.68 19.25 11 C20.25926977 6.96292093 22.06480402 3.68311492 24 0 C27.63 0 31.26 0 35 0 C32.97110659 5.07223353 30.6019399 9.87156184 28.14453125 14.74609375 C26.35185176 19.84268766 27.41441516 22.72631788 29.62890625 27.54296875 C30.26535621 28.76206568 30.91004004 29.97689607 31.5625 31.1875 C35 37.61179061 35 37.61179061 35 41 C31.37 41 27.74 41 24 41 C21.69 36.38 19.38 31.76 17 27 C16.071875 28.381875 15.14375 29.76375 14.1875 31.1875 C13.62933594 32.00476563 13.07117188 32.82203125 12.49609375 33.6640625 C10.87737972 36.0361973 10.87737972 36.0361973 9.75 39.0625 C8 41 8 41 5.59765625 41.296875 C3.04413364 41.31120051 0.54372939 41.21476139 -2 41 C-0.2760131 34.94324179 2.90670299 30.38418474 6.41796875 25.21875 C8.302296 21.38495827 8.28423199 20.02497099 7 16 C5.88861634 13.73192447 4.69636291 11.50215852 3.4375 9.3125 C0 3.31589537 0 3.31589537 0 0 Z " fill="#F1F2F4" transform="translate(444,294)" />
<path d="M0 0 C4.43710646 0.79234044 5.79247723 2.06654151 8.5 5.625 C9.5 8.25 9.5 8.25 10.5 11.625 C10.90476562 12.36105469 11.30953125 13.09710938 11.7265625 13.85546875 C16.18185845 22.08158782 17.1500489 30.45571418 15.5 39.625 C11.95449524 51.53046232 4.49866394 60.29666615 -6.21875 66.171875 C-8.48449756 67.61512516 -9.61554473 68.81740927 -11.125 71 C-13.65326325 73.79439622 -14.0283208 74.08553436 -17.5625 74.3125 C-21.5 73.625 -21.5 73.625 -24 71.625 C-26.07342659 67.47814682 -26.08651804 65.24382953 -25.5 60.625 C-24 58.125 -24 58.125 -21.5 56.625 C-17.2136488 55.95229297 -14.19330732 56.16279512 -10.5 58.625 C-10.5 59.285 -10.5 59.945 -10.5 60.625 C-2.21267362 57.13559942 3.05145394 52.25728486 6.9375 44.0625 C9.97893085 35.64308841 9.68331593 25.92708795 6.5 17.625 C5.90832031 17.75519531 5.31664062 17.88539063 4.70703125 18.01953125 C2.23150222 18.45163828 0.01364658 18.73447205 -2.5 18.625 C-6.22048052 15.7571296 -8.25256006 13.48079955 -8.875 8.8125 C-8.5 5.625 -8.5 5.625 -6.4375 2.75 C-3.5 0.625 -3.5 0.625 0 0 Z " fill="#031841" transform="translate(274.5,148.375)" />
<path d="M0 0 C3.375 2.125 3.375 2.125 6 5 C6.6937386 8.69993918 6.27296546 10.44166155 4.625 13.8125 C3 16 3 16 1 17 C-0.70702735 17.06996014 -2.41668003 17.08440154 -4.125 17.0625 C-5.03507812 17.05347656 -5.94515625 17.04445312 -6.8828125 17.03515625 C-7.93082031 17.01775391 -7.93082031 17.01775391 -9 17 C-12.64254565 27.58072785 -12.90601746 34.36947448 -8.6171875 44.80078125 C-5.51444267 50.93881994 -1.41331026 56.24531715 5 59.0625 C5.99 59.371875 6.98 59.68125 8 60 C8.33 59.01 8.66 58.02 9 57 C12.20841035 55.39579482 15.5193987 55.52537255 19 56 C21.5 57.5 21.5 57.5 23 60 C23.7099846 64.9698922 23.79117716 66.84919686 20.9375 71 C17.25623347 73.50639423 15.37098953 73.71525283 11 73 C8.75 71.1875 8.75 71.1875 7 69 C4.8038253 66.59952997 2.52160971 65.00356956 -0.25 63.3125 C-9.61801329 57.14332052 -14.93826521 48.66373443 -18 38 C-18.97110321 27.24219435 -17.53831 19.1502513 -12 10 C-11.690625 8.80375 -11.38125 7.6075 -11.0625 6.375 C-10 3 -10 3 -8.25 1.0625 C-5.16586795 -0.39389569 -3.38266215 -0.54122594 0 0 Z " fill="#03163F" transform="translate(328,149)" />
<path d="M0 0 C1.67255859 0.02320313 1.67255859 0.02320313 3.37890625 0.046875 C5.89714347 0.21411425 8.03484279 0.52156603 10.4375 1.25 C10.5625 9 10.5625 9 9.4375 11.25 C8.40625 10.92 7.375 10.59 6.3125 10.25 C2.95323291 9.2784808 -0.05356202 9.07883229 -3.5625 9.25 C-3.5625 10.57 -3.5625 11.89 -3.5625 13.25 C-2.74265625 13.56453125 -1.9228125 13.8790625 -1.078125 14.203125 C-0.00046875 14.63109375 1.0771875 15.0590625 2.1875 15.5 C3.78851563 16.12648438 3.78851563 16.12648438 5.421875 16.765625 C9.1828479 18.61688109 11.77330305 20.34735249 13.1875 24.3984375 C13.66150736 28.62006554 13.70184368 30.72131264 11.75 34.625 C8.8040082 37.9690988 6.66795013 39.83984996 2.4375 41.25 C0.14817322 41.37093495 -2.14501324 41.42538326 -4.4375 41.4375 C-5.65179688 41.45167969 -6.86609375 41.46585937 -8.1171875 41.48046875 C-11.40594421 41.26047255 -13.61615948 40.66715618 -16.5625 39.25 C-16.2325 36.61 -15.9025 33.97 -15.5625 31.25 C-12.5625 30.25 -12.5625 30.25 -9.9375 31.1875 C-5.71218081 32.51769308 -1.95090019 32.42553601 2.4375 32.25 C2.4375 30.93 2.4375 29.61 2.4375 28.25 C1.86902344 28.17523438 1.30054688 28.10046875 0.71484375 28.0234375 C-5.40141128 26.98193831 -9.47190059 24.98648352 -13.5625 20.25 C-15.7907348 16.46423654 -16.01801522 13.65331378 -15.5625 9.25 C-11.92099125 2.23672389 -7.82230089 -0.1812816 0 0 Z " fill="#F2F3F5" transform="translate(272.5625,293.75)" />
<path d="M0 0 C7.92 0 15.84 0 24 0 C24 2.64 24 5.28 24 8 C19.71 8 15.42 8 11 8 C11 10.97 11 13.94 11 17 C14.63 17 18.26 17 22 17 C22 19.64 22 22.28 22 25 C18.7 25 15.4 25 12 25 C12 27.31 12 29.62 12 32 C15.96 32 19.92 32 24 32 C24 34.97 24 37.94 24 41 C16.08 41 8.16 41 0 41 C0 27.47 0 13.94 0 0 Z " fill="#E7E8EC" transform="translate(164,294)" />
<path d="M0 0 C7.92 0 15.84 0 24 0 C24 2.97 24 5.94 24 9 C20.04 9 16.08 9 12 9 C12 11.64 12 14.28 12 17 C15.3 17 18.6 17 22 17 C22 19.31 22 21.62 22 24 C18.37 24 14.74 24 11 24 C11 26.64 11 29.28 11 32 C15.29 32 19.58 32 24 32 C24 34.97 24 37.94 24 41 C16.41 41 8.82 41 1 41 C0.67 27.47 0.34 13.94 0 0 Z " fill="#FDFDFD" transform="translate(413,294)" />
<path d="M0 0 C2 1 2 1 2.61790466 2.81610107 C3.24898143 6.42307488 3.12089667 10.05331388 3.09765625 13.703125 C3.0962413 14.54091492 3.09482635 15.37870483 3.09336853 16.24188232 C3.08778197 18.91129157 3.07523194 21.5806162 3.0625 24.25 C3.05748326 26.06249879 3.05292066 27.87499889 3.04882812 29.6875 C3.03781694 34.12503248 3.02056155 38.56250191 3 43 C3.78375 43.268125 4.5675 43.53625 5.375 43.8125 C8 45 8 45 10 48 C9.85486755 51.91857619 9.27710194 54.49908496 7.375 57.9375 C5 60 5 60 1.5625 60.625 C-2.94394111 59.8343963 -4.33280086 58.68701057 -7 55 C-8.0625 51.5 -8.0625 51.5 -8 48 C-6.25 45.0625 -6.25 45.0625 -4 43 C-3.01 43 -2.02 43 -1 43 C-1.00523682 41.73293213 -1.01047363 40.46586426 -1.01586914 39.16040039 C-1.03391514 34.4771393 -1.04543053 29.79388129 -1.05493164 25.1105957 C-1.05997278 23.08031702 -1.06680557 21.05004198 -1.07543945 19.01977539 C-1.08751467 16.10822653 -1.09323034 13.1967255 -1.09765625 10.28515625 C-1.10281754 9.3716188 -1.10797882 8.45808136 -1.11329651 7.51686096 C-1.11349168 5.34424573 -1.06211805 3.17172704 -1 1 C-0.67 0.67 -0.34 0.34 0 0 Z " fill="#03153F" transform="translate(299,174)" />
<path d="M0 0 C4.14840212 0.39135869 6.11083557 1.69295638 9.3125 4.3125 C11.88289383 8.50583875 12.09870083 12.52081286 11.3125 17.3125 C10.005677 20.29691903 8.97528502 21.14898717 6.3125 23.3125 C3.40806969 24.24287193 1.21066742 24.28044263 -1.6875 23.3125 C-5.94895105 19.7582294 -8.51839296 16.03175488 -9.0625 10.5 C-9.04261166 6.85380475 -8.75358692 6.39214321 -6.25 3.375 C-5.404375 2.694375 -4.55875 2.01375 -3.6875 1.3125 C-2.6875 0.3125 -2.6875 0.3125 0 0 Z " fill="#09143D" transform="translate(211.6875,302.6875)" />
<path d="M0 0 C7.92 0 15.84 0 24 0 C24 2.97 24 5.94 24 9 C20.04 9 16.08 9 12 9 C12 11.31 12 13.62 12 16 C11.67 16 11.34 16 11 16 C10.90234375 9.84765625 10.90234375 9.84765625 11 8 C12 7 12 7 14.50390625 6.90234375 C16.01791016 6.91974609 16.01791016 6.91974609 17.5625 6.9375 C18.57441406 6.94652344 19.58632813 6.95554687 20.62890625 6.96484375 C21.80259766 6.98224609 21.80259766 6.98224609 23 7 C23 5.35 23 3.7 23 2 C16.07 2 9.14 2 2 2 C2 14.21 2 26.42 2 39 C8.93 39 15.86 39 23 39 C23 37.02 23 35.04 23 33 C19.37 33 15.74 33 12 33 C12 32.67 12 32.34 12 32 C15.96 32 19.92 32 24 32 C24 34.97 24 37.94 24 41 C16.41 41 8.82 41 1 41 C0.67 27.47 0.34 13.94 0 0 Z " fill="#BEC2CD" transform="translate(413,294)" />
<path d="M0 0 C3.375 -0.125 3.375 -0.125 7 0 C7.66 0.66 8.32 1.32 9 2 C8.875 5.5 8.875 5.5 8 9 C5.17700309 11.23892859 3.7208921 11 0 11 C0 7.37 0 3.74 0 0 Z " fill="#121C42" transform="translate(387,303)" />
<path d="M0 0 C0 0.66 0 1.32 0 2 C18.81 2 37.62 2 57 2 C57 2.33 57 2.66 57 3 C36.21 3 15.42 3 -6 3 C-2 0 -2 0 0 0 Z " fill="#3E5BAC" transform="translate(334,251)" />
<path d="M0 0 C2 1 2 1 3.125 4.25 C3.85463482 7.37700635 4.19234975 9.82622905 4 13 C1.69 13 -0.62 13 -3 13 C-2.343621 8.51474352 -1.29925791 4.33085971 0 0 Z " fill="#1E274C" transform="translate(351,306)" />
<path d="M0 0 C3 0.125 3 0.125 4 1.125 C4.1875 3.5625 4.1875 3.5625 4 6.125 C3.34 6.785 2.68 7.445 2 8.125 C-2.55555556 7.56944444 -2.55555556 7.56944444 -4 6.125 C-4.125 3.625 -4.125 3.625 -4 1.125 C-3 0.125 -3 0.125 0 0 Z " fill="#21CEDC" transform="translate(350,159.875)" />
<path d="M0 0 C3 0.125 3 0.125 4 1.125 C4.1875 3.5625 4.1875 3.5625 4 6.125 C3.34 6.785 2.68 7.445 2 8.125 C-2.55555556 7.56944444 -2.55555556 7.56944444 -4 6.125 C-4.125 3.625 -4.125 3.625 -4 1.125 C-3 0.125 -3 0.125 0 0 Z " fill="#20C5D5" transform="translate(250,159.875)" />
<path d="M0 0 C2 1 2 1 2.625 2.5625 C3.17843734 6.15984273 3.23185387 9.34830149 3 13 C1.5 15 1.5 15 0 16 C-1 15 -1 15 -1.1328125 11.875 C-1.13023437 10.59625 -1.12765625 9.3175 -1.125 8 C-1.12757813 6.72125 -1.13015625 5.4425 -1.1328125 4.125 C-1 1 -1 1 0 0 Z " fill="#020B35" transform="translate(299,174)" />
<path d="M0 0 C2.5 0.125 2.5 0.125 3.5 1.125 C3.625 3.625 3.625 3.625 3.5 6.125 C2.5 7.125 2.5 7.125 0.0625 7.3125 C-2.5 7.125 -2.5 7.125 -4.5 5.125 C-3.7519084 0.18759542 -3.7519084 0.18759542 0 0 Z " fill="#23D3E1" transform="translate(373.5,212.875)" />
<path d="M0 0 C2.5625 0.1875 2.5625 0.1875 4.5625 2.1875 C4.02678571 5.72321429 4.02678571 5.72321429 2.5625 7.1875 C0.0625 7.3125 0.0625 7.3125 -2.4375 7.1875 C-3.4375 6.1875 -3.4375 6.1875 -3.5625 3.6875 C-3.39599509 0.35740177 -3.31519894 0.2550153 0 0 Z " fill="#23D3E1" transform="translate(226.4375,212.8125)" />
<path d="M0 0 C2.0625 0.4375 2.0625 0.4375 4 1 C4.625 2.875 4.625 2.875 5 5 C4.34 5.66 3.68 6.32 3 7 C0.875 6.625 0.875 6.625 -1 6 C-1.042721 4.33388095 -1.04063832 2.66617115 -1 1 C-0.67 0.67 -0.34 0.34 0 0 Z " fill="#1FBFD0" transform="translate(341,210)" />
<path d="M0 0 C2.0625 0.4375 2.0625 0.4375 4 1 C4 2.65 4 4.3 4 6 C2.125 6.625 2.125 6.625 0 7 C-0.66 6.34 -1.32 5.68 -2 5 C-1.46428571 1.46428571 -1.46428571 1.46428571 0 0 Z " fill="#1FBFD0" transform="translate(256,210)" />
<path d="M0 0 C0.66 0.33 1.32 0.66 2 1 C-2.29 5.29 -6.58 9.58 -11 14 C-11 10.30159372 -10.17133056 9.68584567 -7.75 7 C-7.14671875 6.319375 -6.5434375 5.63875 -5.921875 4.9375 C-4.06233388 3.06284066 -2.15205789 1.52358081 0 0 Z " fill="#0F1D51" transform="translate(266,125)" />
<path d="M0 0 C0 0.66 0 1.32 0 2 C6.6 2 13.2 2 20 2 C20 2.33 20 2.66 20 3 C11.42 3 2.84 3 -6 3 C-2 0 -2 0 0 0 Z " fill="#3A68B1" transform="translate(334,251)" />
<path d="M0 0 C1.65 0.33 3.3 0.66 5 1 C4.67 2.65 4.34 4.3 4 6 C2.35 5.67 0.7 5.34 -1 5 C-0.67 3.35 -0.34 1.7 0 0 Z " fill="#20C7D7" transform="translate(298,222)" />
<path d="M0 0 C1.65 0.33 3.3 0.66 5 1 C4.67 2.65 4.34 4.3 4 6 C2.35 5.67 0.7 5.34 -1 5 C-0.67 3.35 -0.34 1.7 0 0 Z " fill="#20C5D5" transform="translate(323,155)" />
<path d="M0 0 C1.65 0.33 3.3 0.66 5 1 C4.67 2.65 4.34 4.3 4 6 C2.35 5.67 0.7 5.34 -1 5 C-0.67 3.35 -0.34 1.7 0 0 Z " fill="#20C5D5" transform="translate(273,155)" />
<path d="M0 0 C1.65 0.33 3.3 0.66 5 1 C4.67 2.65 4.34 4.3 4 6 C2.35 5.67 0.7 5.34 -1 5 C-0.67 3.35 -0.34 1.7 0 0 Z " fill="#20C7D7" transform="translate(298,140)" />
<path d="M0 0 C0.66 0 1.32 0 2 0 C2 0.66 2 1.32 2 2 C7.445 1.505 7.445 1.505 13 1 C13.33 1.99 13.66 2.98 14 4 C9.71 4 5.42 4 1 4 C0.67 2.68 0.34 1.36 0 0 Z " fill="#BDC0CB" transform="translate(395,331)" />
<path d="M0 0 C2 2 2 2 2 6 C-1.96 6 -5.92 6 -10 6 C-10 5.34 -10 4.68 -10 4 C-6.7 4 -3.4 4 0 4 C0 2.68 0 1.36 0 0 Z " fill="#BEC2CC" transform="translate(369,329)" />
<path d="M0 0 C2 2 2 2 2 5 C-1.63 5 -5.26 5 -9 5 C-9.33 4.34 -9.66 3.68 -10 3 C-6.7 3 -3.4 3 0 3 C0 2.01 0 1.02 0 0 Z " fill="#BCBFCA" transform="translate(477,330)" />
<path d="M0 0 C0.66 0.33 1.32 0.66 2 1 C1.43410156 1.55429688 0.86820313 2.10859375 0.28515625 2.6796875 C-0.44832031 3.40414062 -1.18179688 4.12859375 -1.9375 4.875 C-2.66839844 5.59429687 -3.39929688 6.31359375 -4.15234375 7.0546875 C-6.05667999 8.87027192 -6.05667999 8.87027192 -7 11 C-7.66 11 -8.32 11 -9 11 C-7.44095325 7.17324889 -4.96833913 4.81992217 -2 2 C-1.34 1.34 -0.68 0.68 0 0 Z " fill="#4469BD" transform="translate(195,188)" />
<path d="M0 0 C1.32 0.33 2.64 0.66 4 1 C3.67 1.99 3.34 2.98 3 4 C4.32 4.66 5.64 5.32 7 6 C4.625 6.625 4.625 6.625 2 7 C0 5 0 5 -0.125 2.375 C-0.08375 1.59125 -0.0425 0.8075 0 0 Z " fill="#1EBBCC" transform="translate(346,161)" />
<path d="M0 0 C0.33 0.66 0.66 1.32 1 2 C3.97 2 6.94 2 10 2 C9.67 2.66 9.34 3.32 9 4 C5.7 4 2.4 4 -1 4 C-0.67 2.68 -0.34 1.36 0 0 Z " fill="#BBBFCA" transform="translate(443,331)" />
<path d="M0 0 C0.66 0.33 1.32 0.66 2 1 C1.34 1.66 0.68 2.32 0 3 C1.65 3.33 3.3 3.66 5 4 C5 4.33 5 4.66 5 5 C0.545 5.495 0.545 5.495 -4 6 C-4.33 4.68 -4.66 3.36 -5 2 C-2.625 0.9375 -2.625 0.9375 0 0 Z " fill="#3D84C7" transform="translate(225,202)" />
<path d="M0 0 C0.99 0.33 1.98 0.66 3 1 C2.0409375 1.7734375 2.0409375 1.7734375 1.0625 2.5625 C-1.55791681 5.65935623 -1.69389817 8.02067623 -2 12 C-2.33 12 -2.66 12 -3 12 C-3.36923077 4.61538462 -3.36923077 4.61538462 -1.5 1.5 C-1.005 1.005 -0.51 0.51 0 0 Z " fill="#363E5F" transform="translate(206,305)" />
<path d="M0 0 C0.66 0 1.32 0 2 0 C0.84826645 2.46800047 -0.04783565 4.04783565 -2 6 C-2.64767793 8.57061311 -2.64767793 8.57061311 -3 11 C-3.33 11 -3.66 11 -4 11 C-4.35858439 7.14521782 -4.2754818 5.42240542 -2.125 2.125 C-1.42375 1.42375 -0.7225 0.7225 0 0 Z " fill="#0F325F" transform="translate(344,155)" />
</g></svg>